<svg width="38" height="38" viewBox="0 0 38 38" fill="none" xmlns="http://www.w3.org/2000/svg">
<rect x="1" y="1" width="36" height="36" rx="12" fill="black" fill-opacity="0.2"/>
<rect x="0.5" y="0.5" width="37" height="37" rx="12.5" stroke="white" stroke-opacity="0.1"/>
<path d="M28.8652 10.9414L27.5273 9.59375L28.2402 8.89062C28.5625 8.57812 29.041 8.53906 29.3438 8.8418L29.5684 9.07617C29.9004 9.39844 29.9004 9.86719 29.5684 10.2188L28.8652 10.9414ZM17.1172 21.5957C16.9316 21.6738 16.7363 21.4492 16.8145 21.2832L17.6934 19.4473L26.8047 10.3359L28.1426 11.6543L19.0215 20.7656L17.1172 21.5957ZM13.5625 27.9238C11.5312 27.9238 10.4961 26.918 10.4961 24.8965V13.6465C10.4961 11.6348 11.5312 10.6191 13.5625 10.6191H24.627L23.0547 12.1914H13.5918C12.6152 12.1914 12.0684 12.7188 12.0684 13.7344V24.8184C12.0684 25.834 12.6152 26.3516 13.5918 26.3516H25.0078C25.6914 26.3516 26.2285 25.834 26.2285 24.8184V15.4434L27.8008 13.8711V24.8965C27.8008 26.918 26.7852 27.9238 25.0273 27.9238H13.5625Z" fill="#4F6F52"/>
</svg>
