<svg width="38" height="38" viewBox="0 0 38 38" fill="none" xmlns="http://www.w3.org/2000/svg">
<rect x="1" y="1" width="36" height="36" rx="12" fill="black" fill-opacity="0.2"/>
<rect x="0.5" y="0.5" width="37" height="37" rx="12.5" stroke="white" stroke-opacity="0.1"/>
<path d="M8.78906 27.9922C8.05664 27.9922 7.49023 27.4258 7.49023 26.7031V21.0781C7.49023 19.4277 7.82227 18.5098 8.73047 17.3379L9.55078 16.2734C9.91211 14.5156 10.5566 12.6699 10.8984 11.9473C11.416 10.8438 12.4316 10.1699 13.7305 10.0137C14.3848 9.93555 16.5234 9.87695 19.043 9.87695C21.5723 9.87695 23.7109 9.92578 24.3652 10.0137C25.6641 10.1895 26.6699 10.8438 27.1973 11.9473C27.5293 12.6699 28.1836 14.5156 28.5352 16.2734L29.3652 17.3379C30.2637 18.5098 30.5957 19.4277 30.5957 21.0781V26.7031C30.5957 27.4258 30.0391 27.9922 29.3066 27.9922H28.1543C27.4219 27.9922 26.8652 27.4258 26.8652 26.7031V25.0723C24.6973 25.209 21.5527 25.3066 19.043 25.3066C16.5332 25.3066 13.3984 25.209 11.2305 25.0723V26.7031C11.2305 27.4258 10.6641 27.9922 9.93164 27.9922H8.78906ZM11.5234 15.4531C11.4355 15.8145 11.582 15.9512 11.9629 15.9316C13.584 15.8242 15.5176 15.7266 19.043 15.7266C22.5781 15.7266 24.5117 15.8242 26.1328 15.9316C26.5039 15.9512 26.6602 15.8145 26.5723 15.4531C26.3184 14.3887 25.8691 12.9824 25.5371 12.4258C25.2637 11.9668 24.9902 11.7715 24.4629 11.6934C23.7305 11.5762 22.0703 11.5273 19.043 11.5273C16.0254 11.5273 14.3652 11.5957 13.623 11.6934C13.0957 11.7617 12.8125 11.9668 12.5488 12.4258C12.2266 12.9922 11.748 14.3887 11.5234 15.4531ZM12.002 22.6699C12.8906 22.6699 13.5742 21.9863 13.5742 21.0977C13.5742 20.1992 12.8906 19.5254 12.002 19.5254C11.1133 19.5254 10.4297 20.1992 10.4297 21.0977C10.4297 21.9863 11.1133 22.6699 12.002 22.6699ZM26.084 22.6699C26.9824 22.6699 27.6562 21.9863 27.6562 21.0977C27.6562 20.1992 26.9824 19.5254 26.084 19.5254C25.1953 19.5254 24.5215 20.1992 24.5215 21.0977C24.5215 21.9863 25.1953 22.6699 26.084 22.6699ZM16.4648 22.2793H21.6309C22.2949 22.2793 22.7539 21.8203 22.7539 21.1465C22.7539 20.4824 22.2949 20.0234 21.6309 20.0234H16.4648C15.791 20.0234 15.332 20.4824 15.332 21.1465C15.332 21.8203 15.791 22.2793 16.4648 22.2793Z" fill="#4F6F52"/>
</svg>
