<svg width="38" height="38" viewBox="0 0 38 38" fill="none" xmlns="http://www.w3.org/2000/svg">
<rect x="1" y="1" width="36" height="36" rx="12" fill="black" fill-opacity="0.2"/>
<rect x="0.5" y="0.5" width="37" height="37" rx="12.5" stroke="white" stroke-opacity="0.1"/>
<path d="M18.709 28.9102C13.2695 28.9102 8.74805 24.3887 8.74805 18.9492C8.74805 13.5 13.2598 8.98828 18.6992 8.98828C24.1484 8.98828 28.6699 13.5 28.6699 18.9492C28.6699 24.3887 24.1582 28.9102 18.709 28.9102ZM13.2012 19.7793L17.4199 19.7891C17.6152 19.7891 17.7422 19.916 17.7422 20.1113V24.2812C17.7422 25.1797 18.6992 25.2676 19.002 24.623L23.4746 15.0918C23.8359 14.3105 23.1719 13.6465 22.3809 14.0176L12.8691 18.5293C12.2148 18.8418 12.3223 19.7793 13.2012 19.7793Z" fill="#4F6F52"/>
</svg>
